<svg height="512" viewBox="0 0 24 24" width="512" xmlns="http://www.w3.org/2000/svg"><path d="m3 0c-1.0907055 0-2 .90929455-2 2v21c.00005798.55226073.44773927.99994202 1 1h12c.55226073-.00005798.99994202-.44773927 1-1v-4.5c0-.27614237.22385763-.5.5-.5h.5c.56412719 0 .99999957.43587281 1 1v1c-.00000286 1.6450095 1.3549905 2.9999959 3 3 1.6450123 0 3-1.3549877 3-3v-13c0-.94339612-.44450253-1.834352-1.1992188-2.4003906l-3.2011719-2.4003906c-.48856535-.36634949-1.1130532-.18914979-1.4003906.20117188-.32759724.44501086-.24128595 1.0693533.20117187 1.4003906l1.1992188.8984375c.25220351.18891212.40058303.48567118.40039062.80078125v2.5c0 .92237228.64710532 1.7135241 1.5058594 1.9375.26659237.06953127.49414062.28635763.49414062.5625v9.5c0 .56412668-.43587332 1-1 1-.56412443-.00000141-1.000001-.43587557-1-1v-1c-.00000125-1.6450123-1.3549877-3-3-3h-.5c-.27614237 0-.5-.22385763-.5-.5v-13.5c0-1.0907055-.90929455-2-2-2zm.5 2h9c.277 0 .5.223.5.5v7c0 .277-.223.5-.5.5h-9c-.277 0-.5-.223-.5-.5v-7c0-.277.223-.5.5-.5z" solid-color="rgb(0,0,0)" font-feature-settings="normal" font-variant-alternates="normal" font-variant-caps="normal" font-variant-east-asian="normal" font-variant-ligatures="normal" font-variant-numeric="normal" font-variant-position="normal" font-variation-settings="normal" inline-size="0" isolation="auto" mix-blend-mode="normal" paint-order="fill markers stroke" shape-margin="0" shape-padding="0" text-decoration-color="rgb(0,0,0)" text-decoration-line="none" text-decoration-style="solid" text-indent="0" text-orientation="mixed" text-transform="none" white-space="normal"/></svg>